<?xml version="1.0" encoding="UTF-8" standalone="no"?>
<svg
   xmlns:dc="http://purl.org/dc/elements/1.1/"
   xmlns:cc="http://creativecommons.org/ns#"
   xmlns:rdf="http://www.w3.org/1999/02/22-rdf-syntax-ns#"
   xmlns:svg="http://www.w3.org/2000/svg"
   xmlns="http://www.w3.org/2000/svg"
   xmlns:sodipodi="http://sodipodi.sourceforge.net/DTD/sodipodi-0.dtd"
   xmlns:inkscape="http://www.inkscape.org/namespaces/inkscape"
   inkscape:export-ydpi="500"
   inkscape:export-xdpi="500"
   inkscape:export-filename="D:\pauld\Oxford\Dissertation - Random fractals and branching processes\DissertationPaper\img\KochSnowflake.png"
   inkscape:version="1.0 (4035a4fb49, 2020-05-01)"
   sodipodi:docname="KochSnowflake.svg"
   viewBox="0 0 529.13387 604.72441"
   height="160mm"
   width="140mm"
   xml:space="preserve"
   id="svg40032"
   version="1.1"><metadata
     id="metadata40038"><rdf:RDF><cc:Work
         rdf:about=""><dc:format>image/svg+xml</dc:format><dc:type
           rdf:resource="http://purl.org/dc/dcmitype/StillImage" /><dc:title></dc:title></cc:Work></rdf:RDF></metadata><defs
     id="defs40036"><clipPath
       id="clipPath40050"
       clipPathUnits="userSpaceOnUse"><path
         id="path40048"
         d="M 0.179688,9.76172 H 5739.8197 V 4850.2417 H 0.179688 Z" /></clipPath></defs><sodipodi:namedview
     inkscape:current-layer="g40040"
     inkscape:window-maximized="1"
     inkscape:window-y="-8"
     inkscape:window-x="-8"
     inkscape:cy="347.96521"
     inkscape:cx="310.36894"
     inkscape:zoom="0.79440391"
     units="mm"
     showgrid="false"
     id="namedview40034"
     inkscape:window-height="1002"
     inkscape:window-width="1920"
     inkscape:pageshadow="2"
     inkscape:pageopacity="0"
     guidetolerance="10"
     gridtolerance="10"
     objecttolerance="10"
     borderopacity="1"
     bordercolor="#666666"
     pagecolor="#ffffff" /><g
     transform="matrix(1.3333333,0,0,-1.3333333,0,648)"
     inkscape:label="ink_ext_XXXXXX"
     inkscape:groupmode="layer"
     id="g40040"><g
       transform="matrix(0.1,0,0,0.1,-90.822798,2.2132746)"
       id="g40042"><g
         id="g40044"><g
           clip-path="url(#clipPath40050)"
           id="g40046"><path
             id="path40052"
             style="fill:none;stroke:#000000;stroke-width:7.493;stroke-linecap:round;stroke-linejoin:round;stroke-miterlimit:10;stroke-dasharray:none;stroke-opacity:1"
             d="m 1071.68,3621.39 h 14.99 l 7.49,12.98 7.49,-12.98 h 14.99 l 7.49,12.98 -7.49,12.97 h 14.99 l 7.49,12.98 7.49,-12.98 h 14.99 l -7.5,-12.97 7.5,-12.98 h 14.98 l 7.49,12.98 7.5,-12.98 h 14.98 l 7.5,12.98 -7.5,12.97 h 14.99 l 7.49,12.98 -7.49,12.98 h -14.99 l 7.5,12.98 -7.5,12.98 h 14.99 l 7.49,12.97 7.5,-12.97 h 14.98 l 7.49,12.97 -7.49,12.98 h 14.99 l 7.49,12.98 7.49,-12.98 h 14.99 l -7.49,-12.98 7.49,-12.97 h 14.99 l 7.49,12.97 7.49,-12.97 h 14.99 l -7.5,-12.98 7.5,-12.98" /><path
             id="path40054"
             style="fill:none;stroke:#000000;stroke-width:7.493;stroke-linecap:round;stroke-linejoin:round;stroke-miterlimit:10;stroke-dasharray:none;stroke-opacity:1"
             d="m 1341.43,3673.3 h -14.99 l -7.49,-12.98 7.49,-12.98 h 14.99 l -7.5,-12.97 7.5,-12.98 h 14.98 l 7.5,12.98 7.49,-12.98 h 14.99 l 7.49,12.98 -7.49,12.97 h 14.98 l 7.49,12.98 7.5,-12.98 h 14.98 l -7.49,-12.97 7.49,-12.98 h 14.99 l 7.49,12.98 7.5,-12.98 h 14.98 l 7.5,12.98 -7.5,12.97 h 14.99 l 7.49,12.98 -7.49,12.98 h -14.99 l 7.5,12.98 -7.5,12.98 h 14.99 l 7.49,12.97 7.49,-12.97 h 14.99 l 7.49,12.97 -7.49,12.98 h 14.99 l 7.49,12.98 -7.49,12.98 h -14.99 l 7.49,12.98 -7.49,12.98" /><path
             id="path40056"
             style="fill:none;stroke:#000000;stroke-width:7.493;stroke-linecap:round;stroke-linejoin:round;stroke-miterlimit:10;stroke-dasharray:none;stroke-opacity:1"
             d="m 1521.26,3777.13 h -14.99 l -7.49,-12.98 -7.49,12.98 h -14.99 l 7.5,12.98 -7.5,12.97 h 14.99 l 7.49,12.98 -7.49,12.98 h -14.99 l 7.5,12.98 -7.5,12.98 h 14.99 l 7.49,12.97 7.49,-12.97 h 14.99 l 7.49,12.97 -7.49,12.98 h 14.99 l 7.49,12.98 7.49,-12.98 h 14.99 l -7.49,-12.98 7.49,-12.97 h 14.98 l 7.5,12.97 7.49,-12.97 h 14.99 l 7.49,12.97 -7.49,12.98 h 14.98 l 7.5,12.98 -7.5,12.98 h -14.98 l 7.49,12.98 -7.49,12.98 h 14.98 l 7.5,12.97 7.49,-12.97 h 14.98 l 7.5,12.97 -7.5,12.98" /><path
             id="path40058"
             style="fill:none;stroke:#000000;stroke-width:7.493;stroke-linecap:round;stroke-linejoin:round;stroke-miterlimit:10;stroke-dasharray:none;stroke-opacity:1"
             d="m 1656.13,3958.82 h 14.99 l 7.49,12.98 7.5,-12.98 h 14.98 l -7.49,-12.98 7.49,-12.97 h 14.99 l 7.49,12.97 7.49,-12.97 h 14.99 l -7.49,-12.98 7.49,-12.98 h -14.99 l -7.49,-12.98 7.49,-12.98 h 14.99 l -7.49,-12.98 7.49,-12.97 h 14.99 l 7.49,12.97 7.49,-12.97 h 14.99 l 7.49,12.97 -7.49,12.98 h 14.98 l 7.5,12.98 7.49,-12.98 h 14.98 l -7.49,-12.98 7.49,-12.97 h 14.99 l 7.5,12.97 7.49,-12.97 h 14.99 l -7.5,-12.98 7.5,-12.98 h -14.99 l -7.49,-12.98 7.49,-12.98 h 14.99 l -7.5,-12.97 7.5,-12.98" /><path
             id="path40060"
             style="fill:none;stroke:#000000;stroke-width:7.493;stroke-linecap:round;stroke-linejoin:round;stroke-miterlimit:10;stroke-dasharray:none;stroke-opacity:1"
             d="m 1880.93,3777.13 h -14.99 l -7.49,-12.98 -7.5,12.98 h -14.99 l -7.49,-12.98 7.49,-12.98 h -14.98 l -7.49,-12.98 7.49,-12.98 h 14.98 l -7.49,-12.98 7.49,-12.97 h 14.99 l 7.5,12.97 7.49,-12.97 h 14.99 l -7.5,-12.98 7.5,-12.98 h -14.99 l -7.49,-12.98 7.49,-12.98 h 14.99 l -7.5,-12.97 7.5,-12.98 h 14.98 l 7.49,12.98 7.49,-12.98 h 14.99 l 7.5,12.98 -7.5,12.97 h 14.99 l 7.49,12.98 7.5,-12.98 h 14.98 l -7.49,-12.97 7.49,-12.98 h 14.98 l 7.5,12.98 7.49,-12.98 h 14.99 l 7.49,12.98 -7.49,12.97" /><path
             id="path40062"
             style="fill:none;stroke:#000000;stroke-width:7.493;stroke-linecap:round;stroke-linejoin:round;stroke-miterlimit:10;stroke-dasharray:none;stroke-opacity:1"
             d="m 2015.8,3647.34 h 14.99 l 7.49,12.98 -7.49,12.98 h -14.99 l 7.49,12.98 -7.49,12.98 h 14.99 l 7.49,12.97 7.49,-12.97 h 14.99 l 7.49,12.97 -7.49,12.98 h 14.98 l 7.49,12.98 7.5,-12.98 h 14.98 l -7.49,-12.98 7.49,-12.97 h 14.99 l 7.49,12.97 7.5,-12.97 h 14.98 l -7.49,-12.98 7.49,-12.98 h -14.98 l -7.5,-12.98 7.5,-12.98 h 14.98 l -7.49,-12.97 7.49,-12.98 h 14.99 l 7.49,12.98 7.49,-12.98 h 14.99 l 7.5,12.98 -7.5,12.97 h 14.99 l 7.49,12.98 7.49,-12.98 h 14.99 l -7.5,-12.97 7.5,-12.98" /><path
             id="path40064"
             style="fill:none;stroke:#000000;stroke-width:7.493;stroke-linecap:round;stroke-linejoin:round;stroke-miterlimit:10;stroke-dasharray:none;stroke-opacity:1"
             d="m 2240.59,3621.39 h 14.98 l 7.5,12.98 7.49,-12.98 h 14.99 l 7.49,12.98 -7.49,12.97 h 14.98 l 7.49,12.98 -7.49,12.98 h -14.98 l 7.49,12.98 -7.49,12.98 h 14.98 l 7.49,12.97 7.5,-12.97 h 14.98 l 7.5,12.97 -7.5,12.98 h 14.99 l 7.49,12.98 -7.49,12.98 h -14.99 l 7.5,12.98 -7.5,12.98 h -14.98 l -7.5,-12.98 -7.49,12.98 h -14.98 l 7.49,12.98 -7.49,12.97 h 14.98 l 7.49,12.98 -7.49,12.98 h -14.98 l 7.49,12.98 -7.49,12.98 h 14.98 l 7.49,12.97 7.5,-12.97 h 14.98 l 7.5,12.97 -7.5,12.98" /><path
             id="path40066"
             style="fill:none;stroke:#000000;stroke-width:7.493;stroke-linecap:round;stroke-linejoin:round;stroke-miterlimit:10;stroke-dasharray:none;stroke-opacity:1"
             d="m 2330.5,3880.95 h 14.99 l 7.49,12.98 7.5,-12.98 h 14.98 l -7.49,-12.98 7.49,-12.97 h 14.99 l 7.49,12.97 7.49,-12.97 h 14.99 l 7.49,12.97 -7.49,12.98 h 14.99 l 7.49,12.98 -7.49,12.98 h -14.99 l 7.49,12.98 -7.49,12.98 h 14.99 l 7.49,12.97 7.49,-12.97 h 14.99 l 7.49,12.97 -7.49,12.98 h 14.98 l 7.5,12.98 -7.5,12.98 h -14.98 l 7.49,12.98 -7.49,12.97 h -14.99 l -7.49,-12.97 -7.49,12.97 h -14.99 l 7.49,12.98 -7.49,12.98 h 14.99 l 7.49,12.98 -7.49,12.98 h -14.99 l 7.49,12.98 -7.49,12.98" /><path
             id="path40068"
             style="fill:none;stroke:#000000;stroke-width:7.493;stroke-linecap:round;stroke-linejoin:round;stroke-miterlimit:10;stroke-dasharray:none;stroke-opacity:1"
             d="m 2420.42,4088.61 h -14.99 l -7.49,-12.98 -7.49,12.98 h -14.99 l -7.49,-12.98 7.49,-12.98 h -14.98 l -7.5,-12.98 -7.49,12.98 h -14.99 l 7.5,12.98 -7.5,12.98 h -14.98 l -7.5,-12.98 -7.49,12.98 h -14.98 l 7.49,12.97 -7.49,12.98 h 14.98 l 7.49,12.98 -7.49,12.98 h -14.98 l 7.49,12.98 -7.49,12.97 h 14.98 l 7.49,12.98 7.5,-12.98 h 14.98 l 7.5,12.98 -7.5,12.98 h 14.99 l 7.49,12.98 -7.49,12.98 h -14.99 l 7.5,12.98 -7.5,12.97 h -14.98 l -7.5,-12.97 -7.49,12.97 h -14.98 l 7.49,12.98 -7.49,12.98" /><path
             id="path40070"
             style="fill:none;stroke:#000000;stroke-width:7.493;stroke-linecap:round;stroke-linejoin:round;stroke-miterlimit:10;stroke-dasharray:none;stroke-opacity:1"
             d="m 2285.55,4270.3 h 14.98 l 7.49,12.98 -7.49,12.98 h -14.98 l 7.49,12.97 -7.49,12.98 h 14.98 l 7.49,12.98 7.5,-12.98 h 14.98 l 7.5,12.98 -7.5,12.98 h 14.99 l 7.49,12.98 7.5,-12.98 h 14.98 l -7.49,-12.98 7.49,-12.98 h 14.99 l 7.49,12.98 7.49,-12.98 h 14.99 l 7.49,12.98 -7.49,12.98 h 14.99 l 7.49,12.98 -7.49,12.98 h -14.99 l 7.49,12.98 -7.49,12.97 h 14.99 l 7.49,12.98 7.49,-12.98 h 14.99 l 7.49,12.98 -7.49,12.98 h 14.98 l 7.5,12.98 7.49,-12.98 h 14.99 l -7.5,-12.98 7.5,-12.98" /><path
             id="path40072"
             style="fill:none;stroke:#000000;stroke-width:7.493;stroke-linecap:round;stroke-linejoin:round;stroke-miterlimit:10;stroke-dasharray:none;stroke-opacity:1"
             d="m 2510.34,4400.08 h 14.98 l 7.5,12.98 7.49,-12.98 h 14.98 l -7.49,-12.97 7.49,-12.98 h -14.98 l -7.49,-12.98 7.49,-12.98 h 14.98 l -7.49,-12.98 7.49,-12.98 h 14.99 l 7.49,12.98 7.5,-12.98 h 14.98 l 7.5,12.98 -7.5,12.98 h 14.99 l 7.49,12.98 7.49,-12.98 h 14.99 l -7.49,-12.98 7.49,-12.98 h 14.99 l 7.49,12.98 7.49,-12.98 h 14.99 l 7.49,12.98 -7.49,12.98 h 14.98 l 7.5,12.98 -7.5,12.98 h -14.98 l 7.49,12.98 -7.49,12.97 h 14.98 l 7.5,12.98 7.49,-12.98 h 14.99 l 7.49,12.98 -7.49,12.98" /><path
             id="path40074"
             style="fill:none;stroke:#000000;stroke-width:7.493;stroke-linecap:round;stroke-linejoin:round;stroke-miterlimit:10;stroke-dasharray:none;stroke-opacity:1"
             d="m 2735.13,4426.04 h 14.98 l 7.5,12.98 -7.5,12.98 h -14.98 l 7.49,12.97 -7.49,12.98 h -14.99 l -7.49,-12.98 -7.5,12.98 h -14.98 l 7.49,12.98 -7.49,12.98 h 14.98 l 7.5,12.98 -7.5,12.98 h -14.98 l 7.49,12.97 -7.49,12.98 h 14.98 l 7.5,12.98 7.49,-12.98 h 14.99 l 7.49,12.98 -7.49,12.98 h 14.98 l 7.5,12.98 7.49,-12.98 h 14.99 l -7.5,-12.98 7.5,-12.98 h 14.98 l 7.49,12.98 7.49,-12.98 h 14.99 l 7.5,12.98 -7.5,12.98 h 14.99 l 7.49,12.98 -7.49,12.97 h -14.99 l 7.5,12.98 -7.5,12.98" /><path
             id="path40076"
             style="fill:none;stroke:#000000;stroke-width:7.493;stroke-linecap:round;stroke-linejoin:round;stroke-miterlimit:10;stroke-dasharray:none;stroke-opacity:1"
             d="m 2825.04,4633.69 h 14.99 l 7.49,12.98 7.5,-12.98 H 2870 l 7.49,12.98 -7.49,12.98 h 14.98 l 7.5,12.98 7.49,-12.98 h 14.99 l -7.5,-12.98 7.5,-12.98 h 14.99 l 7.49,12.98 7.49,-12.98 h 14.99 l -7.5,-12.98 7.5,-12.98 h -14.99 l -7.49,-12.97 7.49,-12.98 h 14.99 l -7.5,-12.98 7.5,-12.98 h 14.98 l 7.49,12.98 7.5,-12.98 h 14.99 l 7.49,12.98 -7.49,12.98 h 14.98 l 7.49,12.98 7.5,-12.98 h 14.98 l -7.49,-12.98 7.49,-12.98 h 14.99 l 7.49,12.98 7.49,-12.98 h 14.99 l -7.49,-12.98 7.49,-12.97" /><path
             id="path40078"
             style="fill:none;stroke:#000000;stroke-width:7.493;stroke-linecap:round;stroke-linejoin:round;stroke-miterlimit:10;stroke-dasharray:none;stroke-opacity:1"
             d="m 3094.79,4529.87 h -14.99 l -7.49,-12.98 7.49,-12.98 h 14.99 l -7.49,-12.98 7.49,-12.98 h -14.99 l -7.49,-12.98 -7.49,12.98 h -14.99 l -7.49,-12.98 7.49,-12.97 h -14.98 l -7.5,-12.98 7.5,-12.98 h 14.98 l -7.49,-12.98 7.49,-12.98 h 14.99 l 7.49,12.98 7.49,-12.98 h 14.99 l -7.49,-12.97 7.49,-12.98 h -14.99 l -7.49,-12.98 7.49,-12.98 h 14.99 l -7.49,-12.98 7.49,-12.98 h 14.99 l 7.49,12.98 7.49,-12.98 h 14.99 l 7.49,12.98 -7.49,12.98 h 14.98 l 7.5,12.98 7.49,-12.98 h 14.99 l -7.5,-12.98 7.5,-12.98" /><path
             id="path40080"
             style="fill:none;stroke:#000000;stroke-width:7.493;stroke-linecap:round;stroke-linejoin:round;stroke-miterlimit:10;stroke-dasharray:none;stroke-opacity:1"
             d="m 3184.71,4322.21 h 14.98 l 7.49,12.98 7.5,-12.98 h 14.98 l 7.5,12.98 -7.5,12.98 h 14.99 l 7.49,12.98 -7.49,12.98 h -14.99 l 7.5,12.98 -7.5,12.97 h 14.99 l 7.49,12.98 7.5,-12.98 h 14.98 l 7.49,12.98 -7.49,12.98 h 14.99 l 7.49,12.98 7.49,-12.98 h 14.99 l -7.49,-12.98 7.49,-12.98 h 14.99 l 7.49,12.98 7.49,-12.98 h 14.99 l -7.49,-12.97 7.49,-12.98 h -14.99 l -7.49,-12.98 7.49,-12.98 h 14.99 l -7.49,-12.98 7.49,-12.98 h 14.98 l 7.5,12.98 7.49,-12.98 h 14.99 l 7.49,12.98 -7.49,12.98" /><path
             id="path40082"
             style="fill:none;stroke:#000000;stroke-width:7.493;stroke-linecap:round;stroke-linejoin:round;stroke-miterlimit:10;stroke-dasharray:none;stroke-opacity:1"
             d="m 3409.5,4348.17 h 14.98 l 7.5,12.98 7.49,-12.98 h 14.98 l -7.49,-12.98 7.49,-12.98 h 14.99 l 7.49,12.98 7.5,-12.98 h 14.98 l -7.49,-12.98 7.49,-12.97 h -14.98 l -7.5,-12.98 7.5,-12.98 h 14.98 l -7.49,-12.98 7.49,-12.98 h -14.98 l -7.5,-12.97 -7.49,12.97 h -14.99 l -7.49,-12.97 7.49,-12.98 h -14.98 l -7.49,-12.98 7.49,-12.98 h 14.98 l -7.49,-12.98 7.49,-12.98 h 14.99 l 7.49,12.98 7.5,-12.98 h 14.98 l -7.49,-12.97 7.49,-12.98 h -14.98 l -7.5,-12.98 7.5,-12.98 h 14.98 l -7.49,-12.98 7.49,-12.97" /><path
             id="path40084"
             style="fill:none;stroke:#000000;stroke-width:7.493;stroke-linecap:round;stroke-linejoin:round;stroke-miterlimit:10;stroke-dasharray:none;stroke-opacity:1"
             d="m 3499.41,4088.61 h -14.98 l -7.5,-12.98 -7.49,12.98 h -14.99 l -7.49,-12.98 7.49,-12.98 h -14.98 l -7.49,-12.98 -7.5,12.98 h -14.98 l 7.49,12.98 -7.49,12.98 h -14.99 l -7.49,-12.98 -7.5,12.98 h -14.98 l -7.49,-12.98 7.49,-12.98 h -14.99 l -7.49,-12.98 7.49,-12.98 h 14.99 l -7.49,-12.98 7.49,-12.98 h -14.99 l -7.49,-12.97 -7.49,12.97 h -14.99 l -7.49,-12.97 7.49,-12.98 h -14.99 l -7.49,-12.98 7.49,-12.98 h 14.99 l -7.49,-12.98 7.49,-12.97 h 14.99 l 7.49,12.97 7.49,-12.97 h 14.99 l -7.49,-12.98 7.49,-12.98" /><path
             id="path40086"
             style="fill:none;stroke:#000000;stroke-width:7.493;stroke-linecap:round;stroke-linejoin:round;stroke-miterlimit:10;stroke-dasharray:none;stroke-opacity:1"
             d="m 3364.54,3906.91 h -14.99 l -7.49,-12.98 7.49,-12.98 h 14.99 l -7.49,-12.98 7.49,-12.97 h 14.98 l 7.5,12.97 7.49,-12.97 h 14.99 l 7.49,12.97 -7.49,12.98 h 14.98 l 7.5,12.98 7.49,-12.98 h 14.98 l -7.49,-12.98 7.49,-12.97 h 14.99 l 7.49,12.97 7.5,-12.97 h 14.98 l -7.49,-12.98 7.49,-12.98 h -14.98 l -7.5,-12.98 7.5,-12.98 h 14.98 l -7.49,-12.97 7.49,-12.98 h -14.98 l -7.5,-12.98 -7.49,12.98 h -14.99 l -7.49,-12.98 7.49,-12.98 h -14.98 l -7.49,-12.98 7.49,-12.98 h 14.98 l -7.49,-12.98 7.49,-12.97" /><path
             id="path40088"
             style="fill:none;stroke:#000000;stroke-width:7.493;stroke-linecap:round;stroke-linejoin:round;stroke-miterlimit:10;stroke-dasharray:none;stroke-opacity:1"
             d="m 3454.45,3699.26 h 14.99 l 7.49,12.97 7.5,-12.97 h 14.98 l -7.49,-12.98 7.49,-12.98 h -14.98 l -7.5,-12.98 7.5,-12.98 h 14.98 l -7.49,-12.97 7.49,-12.98 h 14.99 l 7.49,12.98 7.49,-12.98 h 14.99 l 7.49,12.98 -7.49,12.97 h 14.99 l 7.49,12.98 7.49,-12.98 h 14.99 l -7.49,-12.97 7.49,-12.98 h 14.98 l 7.5,12.98 7.49,-12.98 h 14.99 l 7.49,12.98 -7.49,12.97 h 14.98 l 7.5,12.98 -7.5,12.98 h -14.98 l 7.49,12.98 -7.49,12.98 h 14.98 l 7.5,12.97 7.49,-12.97 h 14.99 l 7.49,12.97 -7.49,12.98" /><path
             id="path40090"
             style="fill:none;stroke:#000000;stroke-width:7.493;stroke-linecap:round;stroke-linejoin:round;stroke-miterlimit:10;stroke-dasharray:none;stroke-opacity:1"
             d="m 3679.25,3725.21 h 14.98 l 7.49,12.98 7.49,-12.98 h 14.99 l -7.49,-12.98 7.49,-12.97 h 14.99 l 7.49,12.97 7.5,-12.97 h 14.98 l -7.49,-12.98 7.49,-12.98 h -14.98 l -7.5,-12.98 7.5,-12.98 h 14.98 l -7.49,-12.97 7.49,-12.98 h 14.98 l 7.5,12.98 7.49,-12.98 h 14.99 l 7.49,12.98 -7.49,12.97 h 14.99 l 7.49,12.98 7.49,-12.98 h 14.98 l -7.49,-12.97 7.49,-12.98 h 14.99 l 7.49,12.98 7.5,-12.98 h 14.99 l 7.49,12.98 -7.49,12.97 h 14.98 l 7.49,12.98 -7.49,12.98 h -14.98 l 7.49,12.98 -7.49,12.98" /><path
             id="path40092"
             style="fill:none;stroke:#000000;stroke-width:7.493;stroke-linecap:round;stroke-linejoin:round;stroke-miterlimit:10;stroke-dasharray:none;stroke-opacity:1"
             d="m 3904.04,3699.26 h 14.98 l 7.49,12.97 7.5,-12.97 h 14.98 l 7.49,12.97 -7.49,12.98 h 14.99 l 7.49,12.98 -7.49,12.98 h -14.99 l 7.49,12.98 -7.49,12.98 h -14.98 l -7.5,-12.98 -7.49,12.98 h -14.98 l 7.49,12.98 -7.49,12.97 h 14.98 l 7.49,12.98 -7.49,12.98 h -14.98 l 7.49,12.98 -7.49,12.98 h 14.98 l 7.49,12.97 7.5,-12.97 h 14.98 l 7.49,12.97 -7.49,12.98 h 14.99 l 7.49,12.98 7.49,-12.98 h 14.99 l -7.49,-12.98 7.49,-12.97 h 14.99 l 7.49,12.97 7.49,-12.97 h 14.99 l 7.49,12.97 -7.49,12.98" /><path
             id="path40094"
             style="fill:none;stroke:#000000;stroke-width:7.493;stroke-linecap:round;stroke-linejoin:round;stroke-miterlimit:10;stroke-dasharray:none;stroke-opacity:1"
             d="m 4038.91,3880.95 h 14.98 l 7.5,12.98 -7.5,12.98 h -14.98 l 7.49,12.98 -7.49,12.98 h 14.98 l 7.5,12.97 7.49,-12.97 h 14.99 l 7.49,12.97 -7.49,12.98 h 14.98 l 7.49,12.98 7.5,-12.98 h 14.98 l -7.49,-12.98 7.49,-12.97 h 14.99 l 7.49,12.97 7.5,-12.97 h 14.98 l -7.49,-12.98 7.49,-12.98 h -14.98 l -7.5,-12.98 7.5,-12.98 h 14.98 l -7.49,-12.98 7.49,-12.97 h 14.99 l 7.49,12.97 7.49,-12.97 h 14.99 l 7.49,12.97 -7.49,12.98 h 14.99 l 7.49,12.98 7.49,-12.98 h 14.99 l -7.49,-12.98 7.49,-12.97" /><path
             id="path40096"
             style="fill:none;stroke:#000000;stroke-width:7.493;stroke-linecap:round;stroke-linejoin:round;stroke-miterlimit:10;stroke-dasharray:none;stroke-opacity:1"
             d="m 4263.7,3855 h 14.98 l 7.5,12.97 7.49,-12.97 h 14.99 l -7.5,-12.98 7.5,-12.98 h -14.99 l -7.49,-12.98 7.49,-12.98 h 14.99 l -7.5,-12.97 7.5,-12.98 h -14.99 l -7.49,-12.98 -7.5,12.98 h -14.98 l -7.49,-12.98 7.49,-12.98 h -14.99 l -7.49,-12.98 7.49,-12.98 h 14.99 l -7.49,-12.98 7.49,-12.97 h 14.98 l 7.5,12.97 7.49,-12.97 h 14.99 l -7.5,-12.98 7.5,-12.98 h -14.99 l -7.49,-12.98 7.49,-12.98 h 14.99 l -7.5,-12.97 7.5,-12.98 h 14.98 l 7.5,12.98 7.49,-12.98 h 14.98 l 7.5,12.98 -7.5,12.97" /><path
             id="path40098"
             style="fill:none;stroke:#000000;stroke-width:7.493;stroke-linecap:round;stroke-linejoin:round;stroke-miterlimit:10;stroke-dasharray:none;stroke-opacity:1"
             d="m 4353.61,3647.34 h 14.99 l 7.49,12.98 7.5,-12.98 h 14.98 l -7.49,-12.97 7.49,-12.98 h 14.99 l 7.49,12.98 7.49,-12.98 h 14.99 l 7.49,12.98 -7.49,12.97 h 14.99 l 7.49,12.98 -7.49,12.98 h -14.99 l 7.49,12.98 -7.49,12.98 h 14.99 l 7.49,12.97 7.49,-12.97 h 14.99 l 7.49,12.97 -7.49,12.98 h 14.98 l 7.5,12.98 7.49,-12.98 h 14.99 l -7.5,-12.98 7.5,-12.97 h 14.98 l 7.5,12.97 7.49,-12.97 h 14.99 l -7.5,-12.98 7.5,-12.98 h -14.99 l -7.49,-12.98 7.49,-12.98 h 14.99 l -7.5,-12.97 7.5,-12.98" /><path
             id="path40100"
             style="fill:none;stroke:#000000;stroke-width:7.493;stroke-linecap:round;stroke-linejoin:round;stroke-miterlimit:10;stroke-dasharray:none;stroke-opacity:1"
             d="m 4578.41,3621.39 h 14.98 l 7.49,12.98 7.5,-12.98 h 14.98 l 7.5,12.98 -7.5,12.97 h 14.99 l 7.49,12.98 7.5,-12.98 h 14.98 l -7.49,-12.97 7.49,-12.98 h 14.98 l 7.5,12.98 7.49,-12.98 h 14.99 l -7.49,-12.98 7.49,-12.98 h -14.99 l -7.49,-12.98 7.49,-12.98 h 14.99 l -7.49,-12.97 7.49,-12.98 h -14.99 l -7.49,-12.98 -7.5,12.98 h -14.98 l -7.49,-12.98 7.49,-12.98 h -14.98 l -7.5,-12.98 7.5,-12.97 h 14.98 l -7.49,-12.98 7.49,-12.98 h 14.98 l 7.5,12.98 7.49,-12.98 h 14.99 l -7.49,-12.98 7.49,-12.98" /><path
             id="path40102"
             style="fill:none;stroke:#000000;stroke-width:7.493;stroke-linecap:round;stroke-linejoin:round;stroke-miterlimit:10;stroke-dasharray:none;stroke-opacity:1"
             d="m 4713.28,3439.69 h -14.99 l -7.49,-12.98 7.49,-12.98 h 14.99 l -7.49,-12.97 7.49,-12.98 h -14.99 l -7.49,-12.98 -7.5,12.98 h -14.98 l -7.49,-12.98 7.49,-12.98 h -14.98 l -7.5,-12.98 -7.49,12.98 h -14.99 l 7.5,12.98 -7.5,12.98 h -14.98 l -7.5,-12.98 -7.49,12.98 h -14.98 l -7.5,-12.98 7.5,-12.98 h -14.99 l -7.49,-12.98 7.49,-12.97 h 14.99 l -7.5,-12.98 7.5,-12.98 h -14.99 l -7.49,-12.98 -7.5,12.98 h -14.98 l -7.5,-12.98 7.5,-12.98 h -14.99 l -7.49,-12.98 7.49,-12.97 h 14.99 l -7.5,-12.98 7.5,-12.98" /><path
             id="path40104"
             style="fill:none;stroke:#000000;stroke-width:7.493;stroke-linecap:round;stroke-linejoin:round;stroke-miterlimit:10;stroke-dasharray:none;stroke-opacity:1"
             d="m 4533.45,3232.04 h 14.98 l 7.5,12.98 7.49,-12.98 h 14.99 l -7.5,-12.98 7.5,-12.98 h -14.99 l -7.49,-12.97 7.49,-12.98 h 14.99 l -7.5,-12.98 7.5,-12.98 h 14.98 l 7.49,12.98 7.5,-12.98 h 14.98 l 7.5,12.98 -7.5,12.98 h 14.99 l 7.49,12.98 7.5,-12.98 h 14.98 l -7.49,-12.98 7.49,-12.98 h 14.98 l 7.5,12.98 7.49,-12.98 h 14.99 l -7.49,-12.98 7.49,-12.98 h -14.99 l -7.49,-12.98 7.49,-12.97 h 14.99 l -7.49,-12.98 7.49,-12.98 h -14.99 l -7.49,-12.98 -7.5,12.98 h -14.98 l -7.49,-12.98 7.49,-12.98" /><path
             id="path40106"
             style="fill:none;stroke:#000000;stroke-width:7.493;stroke-linecap:round;stroke-linejoin:round;stroke-miterlimit:10;stroke-dasharray:none;stroke-opacity:1"
             d="m 4668.32,3050.34 h -14.98 l -7.5,-12.97 7.5,-12.98 h 14.98 l -7.49,-12.98 7.49,-12.98 h 14.98 l 7.5,12.98 7.49,-12.98 h 14.99 l -7.49,-12.98 7.49,-12.98 h -14.99 l -7.49,-12.97 7.49,-12.98 h 14.99 l -7.49,-12.98 7.49,-12.98 h -14.99 l -7.49,-12.98 -7.5,12.98 h -14.98 l -7.49,-12.98 7.49,-12.97 h -14.98 l -7.5,-12.98 -7.49,12.98 h -14.99 l 7.5,12.97 -7.5,12.98 h -14.98 l -7.5,-12.98 -7.49,12.98 h -14.98 l -7.5,-12.98 7.5,-12.97 h -14.99 l -7.49,-12.98 7.49,-12.98 h 14.99 l -7.5,-12.98 7.5,-12.98" /><path
             id="path40108"
             style="fill:none;stroke:#000000;stroke-width:7.493;stroke-linecap:round;stroke-linejoin:round;stroke-miterlimit:10;stroke-dasharray:none;stroke-opacity:1"
             d="m 4578.41,2842.69 h -14.99 l -7.49,-12.98 -7.5,12.98 h -14.98 l -7.5,-12.98 7.5,-12.98 h -14.99 l -7.49,-12.97 -7.5,12.97 h -14.98 l 7.49,12.98 -7.49,12.98 h -14.99 l -7.49,-12.98 -7.49,12.98 h -14.99 l 7.49,12.98 -7.49,12.98 h 14.99 l 7.49,12.98 -7.49,12.98 h -14.99 l 7.49,12.97 -7.49,12.98 h -14.99 l -7.49,-12.98 -7.49,12.98 h -14.99 l -7.49,-12.98 7.49,-12.97 h -14.98 l -7.5,-12.98 -7.49,12.98 h -14.99 l 7.5,12.97 -7.5,12.98 h -14.98 l -7.49,-12.98 -7.5,12.98 h -14.98 l -7.5,-12.98 7.5,-12.97" /><path
             id="path40110"
             style="fill:none;stroke:#000000;stroke-width:7.493;stroke-linecap:round;stroke-linejoin:round;stroke-miterlimit:10;stroke-dasharray:none;stroke-opacity:1"
             d="m 4308.66,2894.61 h -14.99 l -7.49,-12.98 7.49,-12.98 h 14.99 l -7.5,-12.98 7.5,-12.98 h -14.99 l -7.49,-12.98 -7.5,12.98 h -14.98 l -7.49,-12.98 7.49,-12.98 h -14.99 l -7.49,-12.97 7.49,-12.98 h 14.99 l -7.49,-12.98 7.49,-12.98 h 14.98 l 7.5,12.98 7.49,-12.98 h 14.99 l -7.5,-12.98 7.5,-12.97 h -14.99 l -7.49,-12.98 7.49,-12.98 h 14.99 l -7.5,-12.98 7.5,-12.98 h -14.99 l -7.49,-12.98 -7.5,12.98 h -14.98 l -7.49,-12.98 7.49,-12.97 h -14.99 l -7.49,-12.98 -7.49,12.98 h -14.99 l 7.49,12.97 -7.49,12.98" /><path
             id="path40112"
             style="fill:none;stroke:#000000;stroke-width:7.493;stroke-linecap:round;stroke-linejoin:round;stroke-miterlimit:10;stroke-dasharray:none;stroke-opacity:1"
             d="m 4218.74,2686.95 h -14.99 l -7.49,-12.98 -7.49,12.98 h -14.99 l -7.49,-12.98 7.49,-12.97 h -14.98 l -7.5,-12.98 7.5,-12.98 h 14.98 l -7.49,-12.98 7.49,-12.98 h -14.98 l -7.5,-12.97 -7.49,12.97 h -14.99 l -7.49,-12.97 7.49,-12.98 h -14.98 l -7.5,-12.98 7.5,-12.98 h 14.98 l -7.49,-12.98 7.49,-12.98 h 14.99 l 7.49,12.98 7.5,-12.98 h 14.98 l -7.49,-12.98 7.49,-12.97 h -14.98 l -7.5,-12.98 7.5,-12.98 h 14.98 l -7.49,-12.98 7.49,-12.98 h 14.99 l 7.49,12.98 7.49,-12.98 h 14.99 l 7.49,12.98 -7.49,12.98" /><path
             id="path40114"
             style="fill:none;stroke:#000000;stroke-width:7.493;stroke-linecap:round;stroke-linejoin:round;stroke-miterlimit:10;stroke-dasharray:none;stroke-opacity:1"
             d="m 4218.74,2479.3 h 14.99 l 7.49,12.98 7.49,-12.98 h 14.99 l -7.49,-12.98 7.49,-12.98 h 14.98 l 7.5,12.98 7.49,-12.98 h 14.99 l -7.5,-12.97 7.5,-12.98 h -14.99 l -7.49,-12.98 7.49,-12.98 h 14.99 l -7.5,-12.98 7.5,-12.98 h -14.99 l -7.49,-12.97 -7.5,12.97 h -14.98 l -7.49,-12.97 7.49,-12.98 h -14.99 l -7.49,-12.98 7.49,-12.98 h 14.99 l -7.49,-12.98 7.49,-12.97 h 14.98 l 7.5,12.97 7.49,-12.97 h 14.99 l -7.5,-12.98 7.5,-12.98 h -14.99 l -7.49,-12.98 7.49,-12.98 h 14.99 l -7.5,-12.98 7.5,-12.98" /><path
             id="path40116"
             style="fill:none;stroke:#000000;stroke-width:7.493;stroke-linecap:round;stroke-linejoin:round;stroke-miterlimit:10;stroke-dasharray:none;stroke-opacity:1"
             d="m 4308.66,2219.73 h 14.98 l 7.5,12.98 7.49,-12.98 h 14.98 l 7.5,12.98 -7.5,12.98 h 14.99 l 7.49,12.98 7.5,-12.98 h 14.98 l -7.49,-12.98 7.49,-12.98 h 14.99 l 7.49,12.98 7.49,-12.98 h 14.99 l 7.49,12.98 -7.49,12.98 h 14.99 l 7.49,12.98 -7.49,12.98 h -14.99 l 7.49,12.98 -7.49,12.98 h 14.99 l 7.49,12.97 7.49,-12.97 h 14.99 l 7.49,12.97 -7.49,12.98 h 14.98 l 7.5,12.98 7.49,-12.98 h 14.99 l -7.5,-12.98 7.5,-12.97 h 14.98 l 7.5,12.97 7.49,-12.97 h 14.99 l -7.5,-12.98 7.5,-12.98" /><path
             id="path40118"
             style="fill:none;stroke:#000000;stroke-width:7.493;stroke-linecap:round;stroke-linejoin:round;stroke-miterlimit:10;stroke-dasharray:none;stroke-opacity:1"
             d="m 4578.41,2271.65 h -14.99 l -7.49,-12.98 7.49,-12.98 h 14.99 l -7.5,-12.98 7.5,-12.98 h 14.98 l 7.49,12.98 7.5,-12.98 h 14.98 l 7.5,12.98 -7.5,12.98 h 14.99 l 7.49,12.98 7.5,-12.98 h 14.98 l -7.49,-12.98 7.49,-12.98 h 14.98 l 7.5,12.98 7.49,-12.98 h 14.99 l -7.49,-12.97 7.49,-12.98 h -14.99 l -7.49,-12.98 7.49,-12.98 h 14.99 l -7.49,-12.98 7.49,-12.97 h -14.99 l -7.49,-12.98 -7.5,12.98 h -14.98 l -7.49,-12.98 7.49,-12.98 h -14.98 l -7.5,-12.98 7.5,-12.98 h 14.98 l -7.49,-12.98 7.49,-12.97" /><path
             id="path40120"
             style="fill:none;stroke:#000000;stroke-width:7.493;stroke-linecap:round;stroke-linejoin:round;stroke-miterlimit:10;stroke-dasharray:none;stroke-opacity:1"
             d="m 4668.32,2064 h 14.98 l 7.5,12.97 7.49,-12.97 h 14.99 l -7.49,-12.98 7.49,-12.98 h -14.99 l -7.49,-12.98 7.49,-12.98 h 14.99 l -7.49,-12.97 7.49,-12.98 h -14.99 l -7.49,-12.98 -7.5,12.98 h -14.98 l -7.49,-12.98 7.49,-12.98 h -14.98 l -7.5,-12.98 -7.49,12.98 h -14.99 l 7.5,12.98 -7.5,12.98 h -14.98 l -7.5,-12.98 -7.49,12.98 h -14.98 l -7.5,-12.98 7.5,-12.98 h -14.99 l -7.49,-12.98 7.49,-12.98 h 14.99 l -7.5,-12.98 7.5,-12.97 h -14.99 l -7.49,-12.98 -7.5,12.98 h -14.98 l -7.5,-12.98 7.5,-12.98" /><path
             id="path40122"
             style="fill:none;stroke:#000000;stroke-width:7.493;stroke-linecap:round;stroke-linejoin:round;stroke-miterlimit:10;stroke-dasharray:none;stroke-opacity:1"
             d="m 4533.45,1882.3 h -14.99 l -7.49,-12.98 7.49,-12.98 h 14.99 l -7.5,-12.97 7.5,-12.98 h 14.98 l 7.5,12.98 7.49,-12.98 h 14.99 l -7.5,-12.98 7.5,-12.98 h -14.99 l -7.49,-12.98 7.49,-12.98 h 14.99 l -7.5,-12.97 7.5,-12.98 h 14.98 l 7.49,12.98 7.5,-12.98 h 14.98 l 7.5,12.98 -7.5,12.97 h 14.99 l 7.49,12.98 7.5,-12.98 h 14.98 l -7.49,-12.97 7.49,-12.98 h 14.98 l 7.5,12.98 7.49,-12.98 h 14.99 l -7.49,-12.98 7.49,-12.98 h -14.99 l -7.49,-12.98 7.49,-12.97 h 14.99 l -7.49,-12.98 7.49,-12.98" /><path
             id="path40124"
             style="fill:none;stroke:#000000;stroke-width:7.493;stroke-linecap:round;stroke-linejoin:round;stroke-miterlimit:10;stroke-dasharray:none;stroke-opacity:1"
             d="m 4713.28,1674.65 h -14.99 l -7.49,-12.98 -7.5,12.98 h -14.98 l -7.49,-12.98 7.49,-12.98 h -14.98 l -7.5,-12.98 7.5,-12.98 h 14.98 l -7.49,-12.97 7.49,-12.98 h 14.98 l 7.5,12.98 7.49,-12.98 h 14.99 l -7.49,-12.98 7.49,-12.98 h -14.99 l -7.49,-12.98 7.49,-12.97 h 14.99 l -7.49,-12.98 7.49,-12.98 h -14.99 l -7.49,-12.98 -7.5,12.98 h -14.98 l -7.49,-12.98 7.49,-12.98 h -14.98 l -7.5,-12.97 -7.49,12.97 h -14.99 l 7.5,12.98 -7.5,12.98 h -14.98 l -7.5,-12.98 -7.49,12.98 h -14.98 l -7.5,-12.98 7.5,-12.98" /><path
             id="path40126"
             style="fill:none;stroke:#000000;stroke-width:7.493;stroke-linecap:round;stroke-linejoin:round;stroke-miterlimit:10;stroke-dasharray:none;stroke-opacity:1"
             d="m 4578.41,1492.95 h -14.99 l -7.49,-12.97 7.49,-12.98 h 14.99 l -7.5,-12.98 7.5,-12.98 h -14.99 l -7.49,-12.98 -7.5,12.98 h -14.98 l -7.5,-12.98 7.5,-12.98 h -14.99 l -7.49,-12.97 -7.5,12.97 h -14.98 l 7.49,12.98 -7.49,12.98 h -14.99 l -7.49,-12.98 -7.49,12.98 h -14.99 l 7.49,12.98 -7.49,12.98 h 14.99 l 7.49,12.98 -7.49,12.97 h -14.99 l 7.49,12.98 -7.49,12.98 h -14.99 l -7.49,-12.98 -7.49,12.98 h -14.99 l -7.49,-12.98 7.49,-12.98 h -14.98 l -7.5,-12.97 -7.49,12.97 h -14.99 l 7.5,12.98 -7.5,12.98" /><path
             id="path40128"
             style="fill:none;stroke:#000000;stroke-width:7.493;stroke-linecap:round;stroke-linejoin:round;stroke-miterlimit:10;stroke-dasharray:none;stroke-opacity:1"
             d="m 4353.61,1518.91 h -14.98 l -7.49,-12.98 -7.5,12.98 h -14.98 l -7.5,-12.98 7.5,-12.98 h -14.99 l -7.49,-12.97 7.49,-12.98 h 14.99 l -7.5,-12.98 7.5,-12.98 h -14.99 l -7.49,-12.98 -7.5,12.98 h -14.98 l -7.49,-12.98 7.49,-12.98 h -14.99 l -7.49,-12.97 7.49,-12.98 h 14.99 l -7.49,-12.98 7.49,-12.98 h 14.98 l 7.5,12.98 7.49,-12.98 h 14.99 l -7.5,-12.98 7.5,-12.98 h -14.99 l -7.49,-12.98 7.49,-12.97 h 14.99 l -7.5,-12.98 7.5,-12.98 h -14.99 l -7.49,-12.98 -7.5,12.98 h -14.98 l -7.49,-12.98 7.49,-12.98" /><path
             id="path40130"
             style="fill:none;stroke:#000000;stroke-width:7.493;stroke-linecap:round;stroke-linejoin:round;stroke-miterlimit:10;stroke-dasharray:none;stroke-opacity:1"
             d="m 4263.7,1259.34 h -14.99 l -7.49,-12.97 -7.49,12.97 h -14.99 l 7.49,12.98 -7.49,12.98 h -14.99 l -7.49,-12.98 -7.49,12.98 h -14.99 l -7.49,-12.98 7.49,-12.98 h -14.98 l -7.5,-12.97 7.5,-12.98 h 14.98 l -7.49,-12.98 7.49,-12.98 h -14.98 l -7.5,-12.98 -7.49,12.98 h -14.99 l -7.49,-12.98 7.49,-12.97 h -14.98 l -7.5,-12.98 -7.49,12.98 h -14.98 l 7.49,12.97 -7.49,12.98 h -14.99 l -7.49,-12.98 -7.5,12.98 h -14.98 l 7.49,12.98 -7.49,12.98 h 14.98 l 7.5,12.98 -7.5,12.97 h -14.98 l 7.49,12.98 -7.49,12.98" /><path
             id="path40132"
             style="fill:none;stroke:#000000;stroke-width:7.493;stroke-linecap:round;stroke-linejoin:round;stroke-miterlimit:10;stroke-dasharray:none;stroke-opacity:1"
             d="m 4038.91,1285.3 h -14.99 l -7.49,-12.98 -7.49,12.98 h -14.99 l -7.49,-12.98 7.49,-12.98 h -14.99 l -7.49,-12.97 -7.49,12.97 h -14.99 l 7.49,12.98 -7.49,12.98 h -14.98 l -7.5,-12.98 -7.49,12.98 h -14.98 l 7.49,12.98 -7.49,12.98 h 14.98 l 7.49,12.97 -7.49,12.98 h -14.98 l 7.49,12.98 -7.49,12.98 h 14.98 l 7.49,12.98 7.5,-12.98 h 14.98 l 7.49,12.98 -7.49,12.98 h 14.99 l 7.49,12.98 -7.49,12.97 h -14.99 l 7.49,12.98 -7.49,12.98 h -14.98 l -7.5,-12.98 -7.49,12.98 h -14.98 l 7.49,12.98 -7.49,12.98" /><path
             id="path40134"
             style="fill:none;stroke:#000000;stroke-width:7.493;stroke-linecap:round;stroke-linejoin:round;stroke-miterlimit:10;stroke-dasharray:none;stroke-opacity:1"
             d="m 3904.04,1467 h 14.98 l 7.49,12.98 -7.49,12.97 h -14.98 l 7.49,12.98 -7.49,12.98 h -14.99 l -7.5,-12.98 -7.49,12.98 h -14.99 l -7.49,-12.98 7.49,-12.98 h -14.98 l -7.49,-12.97 -7.49,12.97 h -14.99 l 7.49,12.98 -7.49,12.98 h -14.99 l -7.49,-12.98 -7.5,12.98 h -14.98 l -7.49,-12.98 7.49,-12.98 h -14.98 l -7.5,-12.97 7.5,-12.98 h 14.98 l -7.49,-12.98 7.49,-12.98 h -14.98 l -7.5,-12.98 -7.49,12.98 h -14.99 l -7.49,-12.98 7.49,-12.98 h -14.99 l -7.49,-12.97 -7.49,12.97 h -14.98 l 7.49,12.98 -7.49,12.98" /><path
             id="path40136"
             style="fill:none;stroke:#000000;stroke-width:7.493;stroke-linecap:round;stroke-linejoin:round;stroke-miterlimit:10;stroke-dasharray:none;stroke-opacity:1"
             d="m 3679.25,1441.04 h -14.99 l -7.49,-12.98 -7.5,12.98 h -14.98 l 7.49,12.98 -7.49,12.98 h 14.98 l 7.5,12.98 -7.5,12.97 h -14.98 l 7.49,12.98 -7.49,12.98 h -14.99 l -7.49,-12.98 -7.5,12.98 h -14.98 l -7.49,-12.98 7.49,-12.98 h -14.99 l -7.49,-12.97 -7.49,12.97 h -14.99 l 7.49,12.98 -7.49,12.98 h -14.99 l -7.49,-12.98 -7.49,12.98 h -14.99 l -7.49,-12.98 7.49,-12.98 h -14.98 l -7.5,-12.97 7.5,-12.98 h 14.98 l -7.49,-12.98 7.49,-12.98 h -14.98 l -7.5,-12.98 -7.49,12.98 h -14.99 l -7.49,-12.98 7.49,-12.98" /><path
             id="path40138"
             style="fill:none;stroke:#000000;stroke-width:7.493;stroke-linecap:round;stroke-linejoin:round;stroke-miterlimit:10;stroke-dasharray:none;stroke-opacity:1"
             d="m 3454.45,1415.08 h -14.98 l -7.49,-12.97 7.49,-12.98 h 14.98 l -7.49,-12.98 7.49,-12.98 h 14.99 l 7.49,12.98 7.5,-12.98 h 14.98 l -7.49,-12.98 7.49,-12.98 h -14.98 l -7.5,-12.98 7.5,-12.97 h 14.98 l -7.49,-12.98 7.49,-12.98 h -14.98 l -7.5,-12.98 -7.49,12.98 h -14.99 l -7.49,-12.98 7.49,-12.98 h -14.98 l -7.49,-12.97 -7.5,12.97 h -14.98 l 7.49,12.98 -7.49,12.98 h -14.99 l -7.49,-12.98 -7.5,12.98 h -14.98 l -7.49,-12.98 7.49,-12.98 h -14.99 l -7.49,-12.97 7.49,-12.98 h 14.99 l -7.49,-12.98 7.49,-12.98" /><path
             id="path40140"
             style="fill:none;stroke:#000000;stroke-width:7.493;stroke-linecap:round;stroke-linejoin:round;stroke-miterlimit:10;stroke-dasharray:none;stroke-opacity:1"
             d="m 3364.54,1207.43 h -14.99 l -7.49,-12.98 -7.49,12.98 h -14.99 l -7.49,-12.98 7.49,-12.97 h -14.99 l -7.49,-12.98 7.49,-12.98 h 14.99 l -7.49,-12.98 7.49,-12.98 h 14.99 l 7.49,12.98 7.49,-12.98 h 14.99 l -7.49,-12.98 7.49,-12.97 h -14.99 l -7.49,-12.98 7.49,-12.98 h 14.99 l -7.49,-12.98 7.49,-12.98 h 14.98 l 7.5,12.98 7.49,-12.98 h 14.99 l 7.49,12.98 -7.49,12.98 h 14.98 l 7.5,12.98 7.49,-12.98 h 14.98 l -7.49,-12.98 7.49,-12.98 h 14.99 l 7.49,12.98 7.5,-12.98 h 14.98 l -7.49,-12.98 7.49,-12.98" /><path
             id="path40142"
             style="fill:none;stroke:#000000;stroke-width:7.493;stroke-linecap:round;stroke-linejoin:round;stroke-miterlimit:10;stroke-dasharray:none;stroke-opacity:1"
             d="m 3499.41,1025.73 h -14.98 l -7.5,-12.97 7.5,-12.983 h 14.98 l -7.49,-12.976 7.49,-12.977 h -14.98 l -7.5,-12.98 -7.49,12.98 h -14.99 l -7.49,-12.98 7.49,-12.977 h -14.98 l -7.49,-12.98 7.49,-12.977 h 14.98 l -7.49,-12.98 7.49,-12.977 h 14.99 l 7.49,12.977 7.5,-12.977 h 14.98 l -7.49,-12.976 7.49,-12.981 h -14.98 l -7.5,-12.976 7.5,-12.981 h 14.98 l -7.49,-12.976 7.49,-12.981 h -14.98 l -7.5,-12.977 -7.49,12.977 h -14.99 l -7.49,-12.977 7.49,-12.976 h -14.98 l -7.49,-12.981 -7.5,12.981 h -14.98 l 7.49,12.976 -7.49,12.977" /><path
             id="path40144"
             style="fill:none;stroke:#000000;stroke-width:7.493;stroke-linecap:round;stroke-linejoin:round;stroke-miterlimit:10;stroke-dasharray:none;stroke-opacity:1"
             d="m 3409.5,818.082 h -14.99 l -7.49,-12.977 -7.5,12.977 h -14.98 l -7.49,-12.977 7.49,-12.976 h -14.99 l -7.49,-12.981 7.49,-12.976 h 14.99 l -7.49,-12.981 7.49,-12.976 h -14.99 l -7.49,-12.981 -7.49,12.981 h -14.99 l -7.49,-12.981 7.49,-12.976 h -14.99 l -7.49,-12.981 -7.49,12.981 h -14.99 l 7.49,12.976 -7.49,12.981 h -14.98 l -7.5,-12.981 -7.49,12.981 h -14.99 l 7.5,12.976 -7.5,12.981 h 14.99 l 7.49,12.976 -7.49,12.981 h -14.99 l 7.5,12.976 -7.5,12.977 h -14.98 l -7.5,-12.977 -7.49,12.977 h -14.98 l -7.5,-12.977 7.5,-12.976" /><path
             id="path40146"
             style="fill:none;stroke:#000000;stroke-width:7.493;stroke-linecap:round;stroke-linejoin:round;stroke-miterlimit:10;stroke-dasharray:none;stroke-opacity:1"
             d="m 3184.71,792.129 h -14.99 l -7.49,-12.981 -7.5,12.981 h -14.98 l 7.49,12.976 -7.49,12.977 h -14.99 l -7.49,-12.977 -7.49,12.977 h -14.99 l -7.49,-12.977 7.49,-12.976 h -14.99 l -7.49,-12.981 7.49,-12.976 h 14.99 l -7.49,-12.981 7.49,-12.976 h -14.99 l -7.49,-12.981 -7.49,12.981 h -14.99 l -7.49,-12.981 7.49,-12.976 h -14.98 l -7.5,-12.981 7.5,-12.976 h 14.98 l -7.49,-12.977 7.49,-12.98 h 14.99 l 7.49,12.98 7.49,-12.98 h 14.99 l -7.49,-12.977 7.49,-12.98 h -14.99 l -7.49,-12.977 7.49,-12.98 h 14.99 l -7.49,-12.977 7.49,-12.976" /><path
             id="path40148"
             style="fill:none;stroke:#000000;stroke-width:7.493;stroke-linecap:round;stroke-linejoin:round;stroke-miterlimit:10;stroke-dasharray:none;stroke-opacity:1"
             d="m 3094.79,584.477 h -14.99 l -7.49,-12.981 -7.49,12.981 h -14.99 l -7.49,-12.981 7.49,-12.976 h -14.98 l -7.5,-12.981 -7.49,12.981 h -14.98 l 7.49,12.976 -7.49,12.981 h -14.99 l -7.5,-12.981 -7.49,12.981 h -14.98 l -7.5,-12.981 7.5,-12.976 h -14.99 l -7.49,-12.981 7.49,-12.976 h 14.99 l -7.5,-12.981 7.5,-12.977 h -14.99 l -7.49,-12.976 -7.49,12.976 h -14.99 l -7.5,-12.976 7.5,-12.981 h -14.99 l -7.49,-12.976 -7.5,12.976 H 2870 l 7.49,12.981 -7.49,12.976 h -14.98 l -7.5,-12.976 -7.49,12.976 h -14.99 l 7.5,12.977 -7.5,12.981" /><path
             id="path40150"
             style="fill:none;stroke:#000000;stroke-width:7.493;stroke-linecap:round;stroke-linejoin:round;stroke-miterlimit:10;stroke-dasharray:none;stroke-opacity:1"
             d="m 2825.04,532.563 h 14.99 l 7.49,12.976 -7.49,12.981 h -14.99 l 7.5,12.976 -7.5,12.981 h -14.99 l -7.49,-12.981 -7.49,12.981 h -14.98 l -7.5,-12.981 7.5,-12.976 h -14.99 l -7.49,-12.981 -7.5,12.981 h -14.98 l 7.49,12.976 -7.49,12.981 h -14.99 l -7.49,-12.981 -7.5,12.981 h -14.98 l 7.49,12.976 -7.49,12.977 h 14.98 l 7.5,12.98 -7.5,12.977 h -14.98 l 7.49,12.98 -7.49,12.977 h 14.98 l 7.5,12.98 7.49,-12.98 h 14.99 l 7.49,12.98 -7.49,12.977 h 14.98 l 7.5,12.976 -7.5,12.981 h -14.98 l 7.49,12.976 -7.49,12.981" /><path
             id="path40152"
             style="fill:none;stroke:#000000;stroke-width:7.493;stroke-linecap:round;stroke-linejoin:round;stroke-miterlimit:10;stroke-dasharray:none;stroke-opacity:1"
             d="m 2735.13,740.215 h -14.99 l -7.49,-12.981 -7.5,12.981 h -14.98 l 7.49,12.976 -7.49,12.981 h 14.98 l 7.5,12.976 -7.5,12.981 h -14.98 l 7.49,12.976 -7.49,12.977 h -14.99 l -7.49,-12.977 -7.49,12.977 h -14.99 l -7.49,-12.977 7.49,-12.976 h -14.99 l -7.49,-12.981 -7.49,12.981 h -14.99 l 7.5,12.976 -7.5,12.977 h -14.98 l -7.5,-12.977 -7.49,12.977 h -14.99 l -7.49,-12.977 7.49,-12.976 h -14.98 l -7.49,-12.981 7.49,-12.976 h 14.98 l -7.49,-12.981 7.49,-12.976 h -14.98 l -7.49,-12.981 -7.5,12.981 h -14.98 l -7.5,-12.981 7.5,-12.976" /><path
             id="path40154"
             style="fill:none;stroke:#000000;stroke-width:7.493;stroke-linecap:round;stroke-linejoin:round;stroke-miterlimit:10;stroke-dasharray:none;stroke-opacity:1"
             d="m 2510.34,714.258 h -14.99 l -7.49,-12.981 -7.5,12.981 h -14.98 l 7.49,12.976 -7.49,12.981 h -14.99 l -7.49,-12.981 -7.49,12.981 h -14.99 l 7.49,12.976 -7.49,12.981 h 14.99 l 7.49,12.976 -7.49,12.981 h -14.99 l 7.49,12.976 -7.49,12.977 h -14.99 l -7.49,-12.977 -7.49,12.977 h -14.99 l -7.49,-12.977 7.49,-12.976 h -14.98 l -7.5,-12.981 -7.49,12.981 h -14.99 l 7.5,12.976 -7.5,12.977 h -14.98 l -7.5,-12.977 -7.49,12.977 h -14.98 l 7.49,12.981 -7.49,12.976 h 14.98 l 7.49,12.981 -7.49,12.976 h -14.98 l 7.49,12.981 -7.49,12.976" /><path
             id="path40156"
             style="fill:none;stroke:#000000;stroke-width:7.493;stroke-linecap:round;stroke-linejoin:round;stroke-miterlimit:10;stroke-dasharray:none;stroke-opacity:1"
             d="m 2285.55,895.953 h 14.98 l 7.49,12.977 7.5,-12.977 h 14.98 l 7.5,12.977 -7.5,12.98 h 14.99 l 7.49,12.977 -7.49,12.98 h -14.99 l 7.5,12.977 -7.5,12.98 h -14.98 l -7.5,-12.98 -7.49,12.98 h -14.98 l 7.49,12.977 -7.49,12.976 h 14.98 l 7.49,12.983 -7.49,12.97 h -14.98 l 7.49,12.98 -7.49,12.98 h 14.98 l 7.49,12.98 7.5,-12.98 h 14.98 l 7.5,12.98 -7.5,12.98 h 14.99 l 7.49,12.98 7.5,-12.98 h 14.98 l -7.49,-12.98 7.49,-12.98 h 14.99 l 7.49,12.98 7.49,-12.98 h 14.99 l 7.49,12.98 -7.49,12.98" /><path
             id="path40158"
             style="fill:none;stroke:#000000;stroke-width:7.493;stroke-linecap:round;stroke-linejoin:round;stroke-miterlimit:10;stroke-dasharray:none;stroke-opacity:1"
             d="m 2420.42,1077.65 h 14.99 l 7.49,12.98 -7.49,12.98 h -14.99 l 7.49,12.97 -7.49,12.98 h 14.99 l 7.49,12.98 7.49,-12.98 h 14.99 l 7.49,12.98 -7.49,12.98 h 14.98 l 7.5,12.98 -7.5,12.98 h -14.98 l 7.49,12.97 -7.49,12.98 h -14.99 l -7.49,-12.98 -7.49,12.98 h -14.99 l 7.49,12.98 -7.49,12.98 h 14.99 l 7.49,12.98 -7.49,12.97 h -14.99 l 7.49,12.98 -7.49,12.98 h -14.99 l -7.49,-12.98 -7.49,12.98 h -14.99 l -7.49,-12.98 7.49,-12.98 h -14.98 l -7.5,-12.97 -7.49,12.97 h -14.99 l 7.5,12.98 -7.5,12.98" /><path
             id="path40160"
             style="fill:none;stroke:#000000;stroke-width:7.493;stroke-linecap:round;stroke-linejoin:round;stroke-miterlimit:10;stroke-dasharray:none;stroke-opacity:1"
             d="m 2330.5,1285.3 h -14.98 l -7.5,-12.98 -7.49,12.98 h -14.98 l 7.49,12.98 -7.49,12.98 h 14.98 l 7.49,12.97 -7.49,12.98 h -14.98 l 7.49,12.98 -7.49,12.98 h 14.98 l 7.49,12.98 7.5,-12.98 h 14.98 l 7.5,12.98 -7.5,12.98 h 14.99 l 7.49,12.98 -7.49,12.97 h -14.99 l 7.5,12.98 -7.5,12.98 h -14.98 l -7.5,-12.98 -7.49,12.98 h -14.98 l 7.49,12.98 -7.49,12.98 h 14.98 l 7.49,12.98 -7.49,12.97 h -14.98 l 7.49,12.98 -7.49,12.98 h -14.99 l -7.49,-12.98 -7.5,12.98 h -14.98 l -7.5,-12.98 7.5,-12.98" /><path
             id="path40162"
             style="fill:none;stroke:#000000;stroke-width:7.493;stroke-linecap:round;stroke-linejoin:round;stroke-miterlimit:10;stroke-dasharray:none;stroke-opacity:1"
             d="m 2240.59,1492.95 h -14.99 l -7.49,-12.97 -7.49,12.97 h -14.99 l 7.5,12.98 -7.5,12.98 h -14.99 l -7.49,-12.98 -7.49,12.98 h -14.99 l -7.49,-12.98 7.49,-12.98 h -14.98 l -7.5,-12.97 7.5,-12.98 h 14.98 l -7.49,-12.98 7.49,-12.98 h -14.98 l -7.5,-12.98 -7.49,12.98 h -14.99 l -7.49,-12.98 7.49,-12.98 h -14.98 l -7.5,-12.97 -7.49,12.97 h -14.98 l 7.49,12.98 -7.49,12.98 h -14.99 l -7.49,-12.98 -7.49,12.98 h -14.99 l 7.49,12.98 -7.49,12.98 h 14.99 l 7.49,12.98 -7.49,12.97 h -14.99 l 7.49,12.98 -7.49,12.98" /><path
             id="path40164"
             style="fill:none;stroke:#000000;stroke-width:7.493;stroke-linecap:round;stroke-linejoin:round;stroke-miterlimit:10;stroke-dasharray:none;stroke-opacity:1"
             d="m 2015.8,1518.91 h -14.99 l -7.49,-12.98 -7.5,12.98 h -14.98 l -7.49,-12.98 7.49,-12.98 h -14.98 l -7.5,-12.97 -7.49,12.97 h -14.99 l 7.5,12.98 -7.5,12.98 h -14.99 l -7.49,-12.98 -7.49,12.98 h -14.98 l -7.5,-12.98 7.5,-12.98 h -14.99 l -7.49,-12.97 7.49,-12.98 h 14.99 l -7.5,-12.98 7.5,-12.98 h -14.99 l -7.49,-12.98 -7.5,12.98 h -14.99 l -7.49,-12.98 7.49,-12.98 h -14.98 l -7.49,-12.97 7.49,-12.98 h 14.98 l -7.49,-12.98 7.49,-12.98 h 14.99 l 7.5,12.98 7.49,-12.98 h 14.99 l -7.5,-12.98 7.5,-12.98" /><path
             id="path40166"
             style="fill:none;stroke:#000000;stroke-width:7.493;stroke-linecap:round;stroke-linejoin:round;stroke-miterlimit:10;stroke-dasharray:none;stroke-opacity:1"
             d="m 1880.93,1337.21 h -14.99 l -7.49,-12.98 7.49,-12.97 h 14.99 l -7.5,-12.98 7.5,-12.98 h -14.99 l -7.49,-12.98 -7.5,12.98 h -14.99 l -7.49,-12.98 7.49,-12.98 h -14.98 l -7.49,-12.97 -7.5,12.97 h -14.98 l 7.49,12.98 -7.49,12.98 h -14.99 l -7.49,-12.98 -7.49,12.98 h -14.99 l -7.49,-12.98 7.49,-12.98 h -14.99 l -7.49,-12.97 7.49,-12.98 h 14.99 l -7.49,-12.98 7.49,-12.98 h -14.99 l -7.49,-12.98 -7.49,12.98 h -14.99 l -7.49,-12.98 7.49,-12.97 h -14.98 l -7.5,-12.98 -7.49,12.98 h -14.99 l 7.5,12.97 -7.5,12.98" /><path
             id="path40168"
             style="fill:none;stroke:#000000;stroke-width:7.493;stroke-linecap:round;stroke-linejoin:round;stroke-miterlimit:10;stroke-dasharray:none;stroke-opacity:1"
             d="m 1656.13,1207.43 h -14.98 l -7.49,-12.98 -7.5,12.98 h -14.98 l 7.49,12.98 -7.49,12.98 h 14.98 l 7.5,12.98 -7.5,12.97 h -14.98 l 7.49,12.98 -7.49,12.98 h -14.99 l -7.49,-12.98 -7.5,12.98 h -14.98 l -7.49,-12.98 7.49,-12.98 h -14.99 l -7.49,-12.97 -7.49,12.97 h -14.99 l 7.49,12.98 -7.49,12.98 h -14.99 l -7.49,-12.98 -7.49,12.98 h -14.99 l 7.5,12.98 -7.5,12.98 h 14.99 l 7.49,12.97 -7.49,12.98 h -14.99 l 7.5,12.98 -7.5,12.98 h 14.99 l 7.49,12.98 7.49,-12.98 h 14.99 l 7.49,12.98 -7.49,12.98" /><path
             id="path40170"
             style="fill:none;stroke:#000000;stroke-width:7.493;stroke-linecap:round;stroke-linejoin:round;stroke-miterlimit:10;stroke-dasharray:none;stroke-opacity:1"
             d="m 1521.26,1389.13 h 14.99 l 7.49,12.98 -7.49,12.97 h -14.99 l 7.49,12.98 -7.49,12.98 h -14.99 l -7.49,-12.98 -7.49,12.98 h -14.99 l 7.5,12.98 -7.5,12.98 h 14.99 l 7.49,12.98 -7.49,12.97 h -14.99 l 7.5,12.98 -7.5,12.98 h -14.98 l -7.5,-12.98 -7.49,12.98 h -14.99 l -7.49,-12.98 7.49,-12.98 h -14.98 l -7.5,-12.97 -7.49,12.97 h -14.98 l 7.49,12.98 -7.49,12.98 h -14.99 l -7.49,-12.98 -7.5,12.98 h -14.98 l -7.5,-12.98 7.5,-12.98 h -14.99 l -7.49,-12.97 7.49,-12.98 h 14.99 l -7.5,-12.98 7.5,-12.98" /><path
             id="path40172"
             style="fill:none;stroke:#000000;stroke-width:7.493;stroke-linecap:round;stroke-linejoin:round;stroke-miterlimit:10;stroke-dasharray:none;stroke-opacity:1"
             d="m 1341.43,1441.04 h -14.99 l -7.49,-12.98 -7.49,12.98 h -14.99 l -7.49,-12.98 7.49,-12.98 h -14.99 l -7.49,-12.97 -7.49,12.97 h -14.99 l 7.49,12.98 -7.49,12.98 h -14.98 l -7.5,-12.98 -7.49,12.98 h -14.99 l 7.5,12.98 -7.5,12.98 h 14.99 l 7.49,12.98 -7.49,12.97 h -14.99 l 7.5,12.98 -7.5,12.98 h -14.98 l -7.5,-12.98 -7.49,12.98 h -14.98 l -7.5,-12.98 7.5,-12.98 h -14.99 l -7.49,-12.97 -7.49,12.97 h -14.99 l 7.49,12.98 -7.49,12.98 h -14.99 l -7.49,-12.98 -7.49,12.98 h -14.99 l 7.49,12.98 -7.49,12.98" /><path
             id="path40174"
             style="fill:none;stroke:#000000;stroke-width:7.493;stroke-linecap:round;stroke-linejoin:round;stroke-miterlimit:10;stroke-dasharray:none;stroke-opacity:1"
             d="m 1071.68,1544.87 h 14.99 l 7.49,12.97 -7.49,12.98 h -14.99 l 7.49,12.98 -7.49,12.98 h 14.99 l 7.49,12.98 7.49,-12.98 h 14.99 l 7.49,12.98 -7.49,12.97 h 14.99 l 7.49,12.98 -7.49,12.98 h -14.99 l 7.49,12.98 -7.49,12.98 h -14.99 l -7.49,-12.98 -7.49,12.98 h -14.99 l 7.49,12.98 -7.49,12.98 h 14.99 l 7.49,12.97 -7.49,12.98 h -14.99 l 7.49,12.98 -7.49,12.98 h 14.99 l 7.49,12.98 7.49,-12.98 h 14.99 l 7.49,12.98 -7.49,12.97 h 14.99 l 7.49,12.98 7.49,-12.98 h 14.99 l -7.5,-12.97 7.5,-12.98" /><path
             id="path40176"
             style="fill:none;stroke:#000000;stroke-width:7.493;stroke-linecap:round;stroke-linejoin:round;stroke-miterlimit:10;stroke-dasharray:none;stroke-opacity:1"
             d="m 1161.6,1752.52 h 14.98 l 7.49,12.98 7.5,-12.98 h 14.98 l 7.5,12.98 -7.5,12.97 h 14.99 l 7.49,12.98 -7.49,12.98 h -14.99 l 7.5,12.98 -7.5,12.98 h 14.99 l 7.49,12.98 7.5,-12.98 h 14.98 l 7.49,12.98 -7.49,12.97 h 14.99 l 7.49,12.98 -7.49,12.98 h -14.99 l 7.49,12.98 -7.49,12.98 h -14.98 l -7.5,-12.98 -7.49,12.98 h -14.99 l 7.5,12.97 -7.5,12.98 h 14.99 l 7.49,12.98 -7.49,12.98 h -14.99 l 7.5,12.98 -7.5,12.98 h -14.98 l -7.5,-12.98 -7.49,12.98 h -14.98 l -7.5,-12.98 7.5,-12.98" /><path
             id="path40178"
             style="fill:none;stroke:#000000;stroke-width:7.493;stroke-linecap:round;stroke-linejoin:round;stroke-miterlimit:10;stroke-dasharray:none;stroke-opacity:1"
             d="m 1161.6,1960.17 h -14.99 l -7.49,-12.98 -7.49,12.98 h -14.99 l 7.49,12.98 -7.49,12.98 h -14.99 l -7.49,-12.98 -7.49,12.98 h -14.99 l 7.49,12.98 -7.49,12.97 h 14.99 l 7.49,12.98 -7.49,12.98 h -14.99 l 7.49,12.98 -7.49,12.98 h 14.99 l 7.49,12.97 7.49,-12.97 h 14.99 l 7.49,12.97 -7.49,12.98 h 14.99 l 7.49,12.98 -7.49,12.98 h -14.99 l 7.49,12.98 -7.49,12.98 h -14.99 l -7.49,-12.98 -7.49,12.98 h -14.99 l 7.49,12.97 -7.49,12.98 h 14.99 l 7.49,12.98 -7.49,12.98 h -14.99 l 7.49,12.98 -7.49,12.97" /><path
             id="path40180"
             style="fill:none;stroke:#000000;stroke-width:7.493;stroke-linecap:round;stroke-linejoin:round;stroke-miterlimit:10;stroke-dasharray:none;stroke-opacity:1"
             d="m 1071.68,2219.73 h 14.99 l 7.49,12.98 7.49,-12.98 h 14.99 l 7.49,12.98 -7.49,12.98 h 14.99 l 7.49,12.98 7.49,-12.98 h 14.99 l -7.5,-12.98 7.5,-12.98 h 14.98 l 7.49,12.98 7.5,-12.98 h 14.98 l 7.5,12.98 -7.5,12.98 h 14.99 l 7.49,12.98 -7.49,12.98 h -14.99 l 7.5,12.98 -7.5,12.98 h 14.99 l 7.49,12.97 7.5,-12.97 h 14.98 l 7.49,12.97 -7.49,12.98 h 14.99 l 7.49,12.98 7.49,-12.98 h 14.99 l -7.49,-12.98 7.49,-12.97 h 14.99 l 7.49,12.97 7.49,-12.97 h 14.99 l -7.5,-12.98 7.5,-12.98" /><path
             id="path40182"
             style="fill:none;stroke:#000000;stroke-width:7.493;stroke-linecap:round;stroke-linejoin:round;stroke-miterlimit:10;stroke-dasharray:none;stroke-opacity:1"
             d="m 1341.43,2271.65 h -14.99 l -7.49,-12.98 7.49,-12.98 h 14.99 l -7.5,-12.98 7.5,-12.98 h 14.98 l 7.5,12.98 7.49,-12.98 h 14.99 l 7.49,12.98 -7.49,12.98 h 14.98 l 7.49,12.98 7.5,-12.98 h 14.98 l -7.49,-12.98 7.49,-12.98 h 14.99 l 7.49,12.98 7.5,-12.98 h 14.98 l 7.5,12.98 -7.5,12.98 h 14.99 l 7.49,12.98 -7.49,12.98 h -14.99 l 7.5,12.98 -7.5,12.98 h 14.99 l 7.49,12.97 7.49,-12.97 h 14.99 l 7.49,12.97 -7.49,12.98 h 14.99 l 7.49,12.98 -7.49,12.98 h -14.99 l 7.49,12.98 -7.49,12.97" /><path
             id="path40184"
             style="fill:none;stroke:#000000;stroke-width:7.493;stroke-linecap:round;stroke-linejoin:round;stroke-miterlimit:10;stroke-dasharray:none;stroke-opacity:1"
             d="m 1521.26,2375.47 h -14.99 l -7.49,-12.97 -7.49,12.97 h -14.99 l 7.5,12.98 -7.5,12.98 h 14.99 l 7.49,12.98 -7.49,12.98 h -14.99 l 7.5,12.98 -7.5,12.97 h 14.99 l 7.49,12.98 7.49,-12.98 h 14.99 l 7.49,12.98 -7.49,12.98 h 14.99 l 7.49,12.98 7.49,-12.98 h 14.99 l -7.49,-12.98 7.49,-12.98 h 14.98 l 7.5,12.98 7.49,-12.98 h 14.99 l 7.49,12.98 -7.49,12.98 h 14.98 l 7.5,12.98 -7.5,12.98 h -14.98 l 7.49,12.97 -7.49,12.98 h 14.98 l 7.5,12.98 7.49,-12.98 h 14.98 l 7.5,12.98 -7.5,12.98" /><path
             id="path40186"
             style="fill:none;stroke:#000000;stroke-width:7.493;stroke-linecap:round;stroke-linejoin:round;stroke-miterlimit:10;stroke-dasharray:none;stroke-opacity:1"
             d="m 1656.13,2557.17 h 14.99 l 7.49,12.98 -7.49,12.98 h -14.99 l 7.5,12.98 -7.5,12.97 h -14.98 l -7.49,-12.97 -7.5,12.97 h -14.98 l 7.49,12.98 -7.49,12.98 h 14.98 l 7.5,12.98 -7.5,12.98 h -14.98 l 7.49,12.97 -7.49,12.98 h -14.99 l -7.49,-12.98 -7.5,12.98 h -14.98 l -7.49,-12.98 7.49,-12.97 h -14.99 l -7.49,-12.98 -7.49,12.98 h -14.99 l 7.49,12.97 -7.49,12.98 h -14.99 l -7.49,-12.98 -7.49,12.98 h -14.99 l 7.5,12.98 -7.5,12.98 h 14.99 l 7.49,12.98 -7.49,12.98 h -14.99 l 7.5,12.97 -7.5,12.98" /><path
             id="path40188"
             style="fill:none;stroke:#000000;stroke-width:7.493;stroke-linecap:round;stroke-linejoin:round;stroke-miterlimit:10;stroke-dasharray:none;stroke-opacity:1"
             d="m 1476.3,2764.82 h 14.99 l 7.49,12.98 7.49,-12.98 h 14.99 l 7.49,12.98 -7.49,12.98 h 14.99 l 7.49,12.98 -7.49,12.97 h -14.99 l 7.49,12.98 -7.49,12.98 h -14.99 l -7.49,-12.98 -7.49,12.98 h -14.99 l 7.5,12.98 -7.5,12.98 h 14.99 l 7.49,12.98 -7.49,12.98 h -14.99 l 7.5,12.97 -7.5,12.98 h -14.98 l -7.5,-12.98 -7.49,12.98 h -14.99 l -7.49,-12.98 7.49,-12.97 h -14.98 l -7.5,-12.98 -7.49,12.98 h -14.98 l 7.49,12.97 -7.49,12.98 h -14.99 l -7.49,-12.98 -7.5,12.98 h -14.98 l -7.5,-12.98 7.5,-12.97" /><path
             id="path40190"
             style="fill:none;stroke:#000000;stroke-width:7.493;stroke-linecap:round;stroke-linejoin:round;stroke-miterlimit:10;stroke-dasharray:none;stroke-opacity:1"
             d="m 1341.43,2894.61 h -14.99 l -7.49,-12.98 7.49,-12.98 h 14.99 l -7.5,-12.98 7.5,-12.98 h -14.99 l -7.49,-12.98 -7.49,12.98 h -14.99 l -7.49,-12.98 7.49,-12.98 h -14.99 l -7.49,-12.97 -7.49,12.97 h -14.99 l 7.49,12.98 -7.49,12.98 h -14.98 l -7.5,-12.98 -7.49,12.98 h -14.99 l 7.5,12.98 -7.5,12.98 h 14.99 l 7.49,12.98 -7.49,12.98 h -14.99 l 7.5,12.97 -7.5,12.98 h -14.98 l -7.5,-12.98 -7.49,12.98 h -14.98 l -7.5,-12.98 7.5,-12.97 h -14.99 l -7.49,-12.98 -7.49,12.98 h -14.99 l 7.49,12.97 -7.49,12.98" /><path
             id="path40192"
             style="fill:none;stroke:#000000;stroke-width:7.493;stroke-linecap:round;stroke-linejoin:round;stroke-miterlimit:10;stroke-dasharray:none;stroke-opacity:1"
             d="m 1116.64,2920.56 h -14.99 l -7.49,-12.98 -7.49,12.98 h -14.99 l 7.49,12.98 -7.49,12.98 h 14.99 l 7.49,12.98 -7.49,12.97 h -14.99 l 7.49,12.98 -7.49,12.98 h 14.99 l 7.49,12.98 7.49,-12.98 h 14.99 l 7.49,12.98 -7.49,12.98 h 14.99 l 7.49,12.98 -7.49,12.97 h -14.99 l 7.49,12.98 -7.49,12.98 h -14.99 l -7.49,-12.98 -7.49,12.98 h -14.99 l 7.49,12.98 -7.49,12.98 h 14.99 l 7.49,12.97 -7.49,12.98 h -14.99 l 7.49,12.98 -7.49,12.98 h 14.99 l 7.49,12.98 7.49,-12.98 h 14.99 l 7.49,12.98 -7.49,12.98" /><path
             id="path40194"
             style="fill:none;stroke:#000000;stroke-width:7.493;stroke-linecap:round;stroke-linejoin:round;stroke-miterlimit:10;stroke-dasharray:none;stroke-opacity:1"
             d="m 1116.64,3180.13 h 14.99 l 7.49,12.98 7.49,-12.98 h 14.99 l -7.5,-12.98 7.5,-12.98 h 14.98 l 7.49,12.98 7.5,-12.98 h 14.98 l 7.5,12.98 -7.5,12.98 h 14.99 l 7.49,12.98 -7.49,12.97 h -14.99 l 7.5,12.98 -7.5,12.98 h 14.99 l 7.49,12.98 7.5,-12.98 h 14.98 l 7.49,12.98 -7.49,12.98 h 14.99 l 7.49,12.97 -7.49,12.98 h -14.99 l 7.49,12.98 -7.49,12.98 h -14.98 l -7.5,-12.98 -7.49,12.98 h -14.99 l 7.5,12.98 -7.5,12.98 h 14.99 l 7.49,12.97 -7.49,12.98 h -14.99 l 7.5,12.98 -7.5,12.98" /><path
             id="path40196"
             style="fill:none;stroke:#000000;stroke-width:7.493;stroke-linecap:round;stroke-linejoin:round;stroke-miterlimit:10;stroke-dasharray:none;stroke-opacity:1"
             d="m 1206.55,3387.78 h -14.98 l -7.5,-12.98 -7.49,12.98 h -14.98 l -7.5,-12.98 7.5,-12.98 h -14.99 l -7.49,-12.98 -7.49,12.98 h -14.99 l 7.49,12.98 -7.49,12.98 h -14.99 l -7.49,-12.98 -7.49,12.98 h -14.99 l 7.49,12.98 -7.49,12.97 h 14.99 l 7.49,12.98 -7.49,12.98 h -14.99 l 7.49,12.98 -7.49,12.98 h 14.99 l 7.49,12.98 7.49,-12.98 h 14.99 l 7.49,12.98 -7.49,12.98 h 14.99 l 7.49,12.97 -7.49,12.98 h -14.99 l 7.49,12.98 -7.49,12.98 h -14.99 l -7.49,-12.98 -7.49,12.98 h -14.99 l 7.49,12.98 -7.49,12.97" /><path
             id="path40198"
             style="fill:none;stroke:#000000;stroke-width:7.493;stroke-linecap:round;stroke-linejoin:round;stroke-miterlimit:10;stroke-dasharray:none;stroke-opacity:1"
             d="m 1071.68,3569.47 h 14.99 l 7.49,12.98 -7.49,12.98 h -14.99 l 7.49,12.98 -7.49,12.98" /></g></g></g></g></svg>
